# xmcd
#
# Track frame offsets: 
#        182
#        38175
#        54677
#        87105
#        105777
#        130757
#        156707
#        184402
#        205432
#        230890
#        264285
#
# Disc length: 3764 seconds
#
# Revision: 1
# Processed by: cddbd v1.5.2PL0 Copyright (c) Steve Scherf et al.
# Submitted via: ExactAudioCopy v0.99pb5
#
DISCID=9a0eb20b
DTITLE=Warner Jazz Collection - Warner Jazz Collection - Contrebasse: 
DTITLE=Les plus grands artistes, les plus grands titres
DYEAR=2000
DGENRE=Jazz
TTITLE0=Ron Carter - Stella by starlight
TTITLE1=Charles Mingus - Body and soul
TTITLE2=Ray Brown - Georgia on my mind
TTITLE3=Sam Jones and Ron Carter - Come rain or come shine
TTITLE4=Red Mitchell - Scrapple from the apple
TTITLE5=George Mraz - Alice in Wonderland
TTITLE6=Paul Chambers - Willow weep for me
TTITLE7=Oscar Pettiford - It don't mean a thing
TTITLE8=Leroy Vinnegar - On the sunny side of the street
TTITLE9=Wilbur Ware - The man I love
TTITLE10=Niels-Henning Orsted Pederson - Someday my prince will come
EXTD=
EXTT0=
EXTT1=
EXTT2=
EXTT3=
EXTT4=
EXTT5=
EXTT6=
EXTT7=
EXTT8=
EXTT9=
EXTT10=
PLAYORDER=
